<?xml version="1.0" standalone="no"?>
<!DOCTYPE svg >
<svg version="1.0" xmlns="http://www.w3.org/2000/svg"
 width="16.80px" height="24.10px" viewBox="0 0 168.000000 241.000000"
 preserveAspectRatio="xMidYMid meet">

<g transform="translate(0.000000,241.000000) scale(0.100000,-0.100000)"
fill="black" stroke="none">
<path d="M850 2130 c-2 -52 -3 -116 -3 -142 0 -35 -3 -48 -13 -48 -18 0 -17
-18 1 -50 10 -18 10 -28 2 -38 -8 -10 -7 -16 4 -23 11 -7 8 -9 -9 -9 -37 0
-93 -31 -105 -57 -6 -15 -19 -23 -34 -23 -17 0 -22 -4 -17 -12 5 -7 9 -50 10
-95 1 -78 0 -83 -20 -83 -33 0 -83 -36 -113 -81 l-28 -42 -3 -204 c-3 -169 -6
-203 -18 -203 -8 0 -14 -9 -14 -19 0 -11 -4 -23 -10 -26 -13 -8 -13 -42 0 -47
7 -2 11 -87 13 -240 l2 -237 -103 -3 c-63 -2 -102 1 -102 7 0 6 -20 10 -45 10
l-45 0 0 -107 0 -108 235 0 235 0 0 403 c0 451 -2 440 74 501 29 24 49 31 96
34 35 3 72 -1 90 -8 42 -17 97 -82 109 -127 6 -22 10 -196 10 -418 l1 -380
232 -2 233 -3 -2 106 -2 107 -45 1 c-26 0 -46 -3 -46 -9 0 -6 -34 -9 -90 -7
-66 3 -95 0 -110 -11 -18 -12 -18 -15 -5 -20 8 -4 15 -3 15 2 0 4 38 9 85 10
56 1 85 -2 85 -9 0 -6 7 -4 16 5 9 9 23 14 30 11 8 -3 14 -1 14 5 0 6 8 6 21
-1 14 -8 17 -15 10 -23 -5 -7 -8 -40 -5 -74 l4 -62 -54 -6 c-89 -11 -343 -2
-358 13 -10 10 -13 72 -12 275 1 144 3 299 5 345 2 45 1 82 -3 82 -4 0 -3 11
2 24 6 18 3 35 -15 69 -12 25 -26 43 -30 39 -5 -4 -5 1 -2 11 4 10 3 16 -2 13
-4 -3 -17 4 -27 16 -11 12 -13 18 -6 14 6 -4 12 -5 12 -2 0 3 -10 10 -21 17
-13 6 -19 7 -15 1 3 -6 -13 -1 -36 10 -47 23 -143 22 -158 -2 -4 -7 -20 -12
-35 -12 -18 0 -23 -3 -14 -9 11 -6 10 -9 -5 -15 -9 -4 -22 -18 -27 -31 -5 -13
-13 -21 -19 -18 -6 4 -7 -1 -3 -11 4 -11 3 -15 -5 -10 -14 8 -13 36 -15 -406
0 -222 -5 -378 -10 -378 -5 0 -4 -6 2 -13 6 -8 8 -17 4 -20 -9 -10 -413 -9
-414 1 -1 4 -2 41 -3 83 l-1 75 27 2 c16 1 28 -2 28 -8 0 -5 -5 -10 -12 -10
-6 0 -8 -3 -5 -6 4 -4 13 -2 20 4 9 8 47 10 109 7 77 -4 98 -2 108 10 9 11 12
73 11 240 -2 160 1 225 9 225 6 0 2 13 -9 28 -22 32 -15 56 15 46 18 -6 18 -6
-1 9 -23 19 -14 22 18 6 20 -9 20 -9 5 4 -23 18 -23 31 -2 23 14 -5 15 -4 5 8
-16 19 -11 366 5 366 8 0 9 -13 3 -42 -11 -63 6 -92 59 -99 23 -3 42 -2 42 2
0 4 10 11 23 15 12 3 30 13 39 21 9 8 22 12 29 7 8 -5 10 -3 4 6 -6 10 -4 12
7 7 25 -9 52 30 55 76 1 25 -1 36 -6 28 -6 -9 -11 -5 -19 16 -11 32 -63 63
-106 63 -37 0 -95 -32 -102 -56 -3 -11 -12 -21 -20 -21 -18 0 -18 11 1 27 8 7
15 18 15 24 0 13 33 47 60 61 9 5 7 0 -5 -14 l-20 -23 34 19 c45 24 68 46 63
61 -2 7 1 12 7 12 15 0 14 -33 -1 -49 -11 -11 -10 -12 0 -7 7 4 20 2 28 -5 14
-12 14 -14 0 -19 -12 -4 -9 -8 10 -17 22 -10 24 -10 14 3 -9 10 -9 14 -1 14 6
0 15 -8 18 -17 4 -10 13 -24 20 -31 7 -7 16 -25 19 -40 9 -35 22 -52 37 -46 7
2 21 -9 32 -25 12 -19 31 -32 52 -36 19 -3 49 -15 68 -27 108 -63 163 -25 134
94 -7 29 -19 57 -26 61 -7 4 -13 13 -13 18 0 6 5 7 12 3 7 -4 8 -3 4 5 -4 6
-11 9 -16 6 -5 -3 -18 3 -29 14 -11 11 -22 17 -25 14 -3 -4 -6 -1 -6 7 0 10
-3 10 -15 0 -8 -7 -25 -10 -38 -7 -17 5 -27 -1 -42 -23 -10 -16 -23 -26 -29
-23 -5 3 -6 1 -2 -5 3 -6 2 -13 -4 -17 -6 -3 -10 4 -10 18 0 16 15 37 45 64
41 36 51 57 35 73 -10 10 -31 45 -36 61 -6 18 -66 42 -109 44 -23 0 -41 -11
-77 -47 -26 -27 -50 -48 -54 -48 -11 0 1 131 13 138 5 4 15 17 22 30 7 12 17
20 23 16 7 -5 8 -2 3 6 -5 8 -3 11 6 8 26 -10 114 45 103 63 -3 5 -10 7 -15 4
-13 -8 -11 -3 7 35 15 29 15 35 3 44 -10 8 -14 25 -12 56 2 25 0 88 -5 140
l-9 95 -3 -95z m60 -485 c46 -24 83 -115 47 -115 -31 0 -107 -115 -92 -140 3
-5 1 -11 -4 -14 -5 -4 -12 12 -16 35 -5 29 -20 54 -51 87 -46 48 -52 71 -30
111 27 48 91 64 146 36z m-160 -202 c18 -16 35 -44 39 -65 10 -41 6 -48 -21
-48 -10 0 -45 -13 -78 -30 -33 -16 -71 -30 -85 -30 -23 0 -25 4 -25 45 0 128
93 197 170 128z m328 11 c34 -24 52 -68 52 -129 0 -54 0 -55 -30 -55 -16 0
-46 11 -66 25 -21 14 -54 28 -76 31 -41 7 -46 20 -28 71 23 63 99 92 148 57z
m-174 -80 c-6 -23 -8 -24 -17 -9 -6 12 -6 20 2 24 7 4 9 16 6 27 -6 17 -5 17
5 2 6 -10 8 -29 4 -44z"/>
<path d="M875 1810 c-3 -6 4 -10 18 -10 23 0 77 -43 77 -61 0 -4 8 -10 19 -14
16 -5 18 -16 18 -86 -1 -87 16 -125 49 -112 13 5 15 3 9 -7 -5 -8 -3 -11 6 -8
22 7 99 -82 99 -114 0 -9 -3 -9 -10 2 -5 8 -10 10 -10 4 0 -5 5 -15 11 -21 11
-11 12 -36 6 -114 -2 -25 -1 -69 3 -98 4 -34 3 -51 -4 -51 -6 0 -5 -4 3 -9 11
-7 11 -9 0 -14 -9 -4 -10 -8 -4 -14 6 -4 12 -24 13 -43 2 -19 11 -43 19 -52 8
-9 12 -22 7 -29 -5 -9 -2 -10 12 -6 18 7 18 6 -1 -8 -19 -15 -20 -28 -20 -244
0 -126 3 -227 7 -225 4 3 5 -1 2 -9 -3 -8 -1 -18 5 -22 8 -4 11 67 11 236 0
218 2 243 17 254 17 13 17 14 0 32 -9 11 -17 27 -17 36 0 9 -4 17 -10 17 -6 0
-10 62 -10 165 0 211 -10 257 -65 312 -25 25 -56 46 -75 49 l-32 7 4 93 c3 92
2 94 -19 94 -13 0 -23 5 -23 10 0 38 -98 88 -115 60z"/>
<path d="M978 1703 c7 -3 16 -2 19 1 4 3 -2 6 -13 5 -11 0 -14 -3 -6 -6z"/>
<path d="M840 555 c0 -442 2 -505 15 -505 13 0 15 63 15 505 0 442 -2 505 -15
505 -13 0 -15 -63 -15 -505z"/>
<path d="M1156 1025 c4 -8 8 -15 10 -15 2 0 4 7 4 15 0 8 -4 15 -10 15 -5 0
-7 -7 -4 -15z"/>
<path d="M800 853 c-1 -5 -2 -187 -3 -405 -2 -313 1 -398 11 -398 9 0 12 88
12 405 0 263 -3 405 -10 405 -5 0 -10 -3 -10 -7z"/>
<path d="M890 455 c0 -353 2 -405 15 -405 13 0 15 52 15 405 0 353 -2 405 -15
405 -13 0 -15 -52 -15 -405z"/>
<path d="M946 653 c-10 -11 -7 -603 4 -603 10 0 19 599 9 606 -3 2 -9 1 -13
-3z"/>
<path d="M522 625 c0 -16 2 -22 5 -12 2 9 2 23 0 30 -3 6 -5 -1 -5 -18z"/>
<path d="M750 350 c0 -193 4 -300 10 -300 6 0 10 107 10 300 0 193 -4 300 -10
300 -6 0 -10 -107 -10 -300z"/>
<path d="M1253 530 c0 -25 2 -35 4 -22 2 12 2 32 0 45 -2 12 -4 2 -4 -23z"/>
<path d="M700 250 c0 -153 3 -200 13 -200 9 0 12 47 12 200 0 153 -3 200 -12
200 -10 0 -13 -47 -13 -200z"/>
<path d="M985 250 c0 -171 2 -200 15 -200 13 0 15 28 12 200 -2 148 -6 200
-15 200 -9 0 -12 -50 -12 -200z"/>
<path d="M538 433 c7 -3 16 -2 19 1 4 3 -2 6 -13 5 -11 0 -14 -3 -6 -6z"/>
<path d="M235 300 c-11 -18 18 -20 215 -17 l195 2 -205 5 c-189 4 -196 4 -95
10 l110 6 -107 2 c-63 1 -109 -2 -113 -8z"/>
<path d="M1115 300 c-10 -16 17 -21 81 -17 l59 3 -70 4 -70 4 85 6 85 6 -82 2
c-46 1 -85 -2 -88 -8z"/>
</g>
</svg>